# xmcd CD database file
#
# Track frame offsets:
#	150
#	18600
#	43487
#	64275
#	85350
#
# Disc length: 1434 seconds
#
# Revision: 0
# Processed by: cddbd v1.5PL3 Copyright (c) Steve Scherf et al.
# Submitted via: CDex 1.51
#
DISCID=46059805
DTITLE=Ronny Jordan/I.G. Culture - Get To Grips
DYEAR=1992
DGENRE=Jazz
TTITLE0=Get To Grips (Single Version)
TTITLE1=Get To Grips (Cool Mix)
TTITLE2=Get To Grips (Rugged Mix)
TTITLE3=Flat Out
TTITLE4=Get To Grips (Album Mix)
EXTD=YEAR: 1992
EXTT0=
EXTT1=
EXTT2=
EXTT3=
EXTT4=
PLAYORDER=
